<svg xmlns="http://www.w3.org/2000/svg" xmlns:xlink="http://www.w3.org/1999/xlink" width="1920" zoomAndPan="magnify" viewBox="0 0 1440 809.999993" height="1080" preserveAspectRatio="xMidYMid meet" version="1.0"><defs><clipPath id="94518ec9ec"><path d="M 420.65625 40.5 L 1019.34375 40.5 L 1019.34375 770 L 420.65625 770 Z M 420.65625 40.5 " clip-rule="nonzero"/></clipPath><clipPath id="ea4e6aa52f"><path d="M 620.328125 57.789062 C 650.921875 47.351562 685.914062 40.5 720.160156 40.5 C 754.410156 40.5 787.363281 46.371094 817.734375 56.808594 C 818.382812 57.136719 819.027344 57.136719 819.671875 57.460938 C 933.726562 99.214844 1017.730469 209.460938 1019.34375 338.128906 L 1019.34375 769.5 L 420.65625 769.5 L 420.65625 338.449219 C 422.269531 208.8125 504.984375 98.558594 620.328125 57.789062 Z M 620.328125 57.789062 " clip-rule="nonzero"/></clipPath><clipPath id="b5f557b137"><path d="M 0.65625 0.5 L 599.34375 0.5 L 599.34375 729.679688 L 0.65625 729.679688 Z M 0.65625 0.5 " clip-rule="nonzero"/></clipPath><clipPath id="897865a8a6"><path d="M 200.328125 17.789062 C 230.921875 7.351562 265.914062 0.5 300.160156 0.5 C 334.410156 0.5 367.363281 6.371094 397.734375 16.808594 C 398.382812 17.136719 399.027344 17.136719 399.671875 17.460938 C 513.726562 59.214844 597.730469 169.460938 599.34375 298.128906 L 599.34375 729.5 L 0.65625 729.5 L 0.65625 298.449219 C 2.269531 168.8125 84.984375 58.558594 200.328125 17.789062 Z M 200.328125 17.789062 " clip-rule="nonzero"/></clipPath><clipPath id="2a05908194"><rect x="0" width="600" y="0" height="730"/></clipPath></defs><g clip-path="url(#94518ec9ec)"><g clip-path="url(#ea4e6aa52f)"><g transform="matrix(1, 0, 0, 1, 420, 40)"><g clip-path="url(#2a05908194)"><g clip-path="url(#b5f557b137)"><g clip-path="url(#897865a8a6)"><path fill="#947f57" d="M 0.65625 0.5 L 599.34375 0.5 L 599.34375 730.152344 L 0.65625 730.152344 Z M 0.65625 0.5 " fill-opacity="1" fill-rule="nonzero"/></g></g></g></g></g></g></svg>