<svg xmlns="http://www.w3.org/2000/svg" xmlns:xlink="http://www.w3.org/1999/xlink" width="1920" zoomAndPan="magnify" viewBox="0 0 1440 809.999993" height="1080" preserveAspectRatio="xMidYMid meet" version="1.0"><defs><clipPath id="26aab38d78"><path d="M 122.945312 188 L 1316.945312 188 L 1316.945312 622 L 122.945312 622 Z M 122.945312 188 " clip-rule="nonzero"/></clipPath></defs><g clip-path="url(#26aab38d78)"><path fill="#3d3d3d" d="M 1033.378906 255.257812 L 974.484375 188.148438 L 926.097656 240.476562 C 857.582031 233.394531 788.878906 229.867188 719.996094 229.894531 C 430.570312 229.894531 122.945312 292.273438 122.945312 407.863281 C 122.945312 473.707031 222.769531 522.285156 362.148438 551.898438 L 423.476562 621.777344 L 471.097656 570.261719 C 553.734375 580.738281 636.699219 585.929688 719.996094 585.835938 C 1009.425781 585.835938 1317.050781 523.476562 1317.050781 407.863281 C 1317.050781 335.214844 1195.511719 283.675781 1033.378906 255.257812 Z M 1124.964844 504.179688 C 1017.019531 534.058594 873.199219 550.488281 719.996094 550.488281 C 641.347656 550.679688 562.984375 546.070312 484.902344 536.660156 L 425.457031 468.929688 L 378.769531 519.417969 C 356.390625 514.808594 335.089844 509.722656 315.027344 504.179688 C 239.25 483.210938 158.289062 446.910156 158.289062 407.863281 C 158.289062 368.816406 239.25 332.515625 315.027344 311.570312 C 422.976562 281.695312 566.792969 265.242188 719.996094 265.242188 C 787.273438 265.242188 852.734375 268.417969 914.160156 274.507812 L 972.503906 340.996094 L 1020.910156 288.742188 C 1058.285156 295.140625 1093.25 302.757812 1125.0625 311.570312 C 1200.839844 332.515625 1281.800781 368.890625 1281.800781 407.863281 C 1281.800781 446.839844 1200.742188 483.210938 1124.964844 504.179688 Z M 1124.964844 504.179688 " fill-opacity="1" fill-rule="nonzero"/></g></svg>