<svg xmlns="http://www.w3.org/2000/svg" xmlns:xlink="http://www.w3.org/1999/xlink" width="1920" zoomAndPan="magnify" viewBox="0 0 1440 809.999993" height="1080" preserveAspectRatio="xMidYMid meet" version="1.0"><path fill="#947f57" d="M 1380.117188 405.003906 L 1395.074219 390.046875 C 1395.449219 389.667969 1395.785156 389.257812 1396.082031 388.816406 C 1396.375 388.375 1396.625 387.90625 1396.832031 387.414062 C 1397.035156 386.921875 1397.1875 386.414062 1397.292969 385.890625 C 1397.394531 385.367188 1397.449219 384.839844 1397.449219 384.308594 C 1397.449219 383.777344 1397.394531 383.25 1397.292969 382.726562 C 1397.1875 382.203125 1397.035156 381.695312 1396.828125 381.203125 C 1396.625 380.710938 1396.375 380.242188 1396.078125 379.800781 C 1395.785156 379.359375 1395.445312 378.949219 1395.070312 378.570312 C 1394.695312 378.195312 1394.285156 377.859375 1393.839844 377.5625 C 1393.398438 377.265625 1392.929688 377.015625 1392.4375 376.8125 C 1391.945312 376.609375 1391.4375 376.453125 1390.917969 376.351562 C 1390.394531 376.246094 1389.867188 376.195312 1389.332031 376.195312 C 1388.800781 376.195312 1388.273438 376.246094 1387.75 376.351562 C 1387.226562 376.453125 1386.71875 376.609375 1386.226562 376.8125 C 1385.734375 377.015625 1385.269531 377.265625 1384.824219 377.5625 C 1384.382812 377.855469 1383.972656 378.191406 1383.59375 378.570312 L 1368.640625 393.527344 L 1353.683594 378.570312 C 1353.304688 378.191406 1352.894531 377.855469 1352.453125 377.558594 C 1352.011719 377.265625 1351.542969 377.015625 1351.050781 376.808594 C 1350.558594 376.605469 1350.050781 376.453125 1349.527344 376.347656 C 1349.003906 376.242188 1348.476562 376.191406 1347.945312 376.191406 C 1347.410156 376.191406 1346.882812 376.242188 1346.359375 376.347656 C 1345.839844 376.453125 1345.332031 376.605469 1344.839844 376.808594 C 1344.347656 377.011719 1343.878906 377.261719 1343.433594 377.558594 C 1342.992188 377.855469 1342.582031 378.191406 1342.207031 378.570312 C 1341.828125 378.945312 1341.492188 379.355469 1341.195312 379.796875 C 1340.898438 380.242188 1340.648438 380.710938 1340.445312 381.203125 C 1340.242188 381.695312 1340.085938 382.203125 1339.984375 382.722656 C 1339.878906 383.246094 1339.828125 383.773438 1339.828125 384.308594 C 1339.828125 384.839844 1339.878906 385.367188 1339.984375 385.890625 C 1340.085938 386.414062 1340.242188 386.921875 1340.445312 387.414062 C 1340.648438 387.90625 1340.898438 388.375 1341.195312 388.816406 C 1341.492188 389.257812 1341.828125 389.667969 1342.203125 390.046875 L 1357.160156 405.003906 L 1342.203125 419.957031 C 1341.832031 420.335938 1341.5 420.746094 1341.210938 421.191406 C 1340.917969 421.632812 1340.671875 422.101562 1340.472656 422.589844 C 1340.273438 423.082031 1340.121094 423.589844 1340.019531 424.109375 C 1339.917969 424.628906 1339.871094 425.15625 1339.871094 425.683594 C 1339.875 426.214844 1339.929688 426.738281 1340.03125 427.261719 C 1340.136719 427.78125 1340.292969 428.285156 1340.496094 428.773438 C 1340.699219 429.261719 1340.949219 429.726562 1341.246094 430.167969 C 1341.539062 430.609375 1341.875 431.015625 1342.25 431.390625 C 1342.625 431.765625 1343.03125 432.101562 1343.472656 432.398438 C 1343.914062 432.691406 1344.378906 432.941406 1344.867188 433.144531 C 1345.359375 433.351562 1345.863281 433.503906 1346.382812 433.609375 C 1346.902344 433.714844 1347.425781 433.765625 1347.957031 433.769531 C 1348.488281 433.773438 1349.011719 433.722656 1349.53125 433.621094 C 1350.054688 433.519531 1350.558594 433.371094 1351.050781 433.171875 C 1351.542969 432.96875 1352.007812 432.722656 1352.453125 432.433594 C 1352.894531 432.140625 1353.304688 431.808594 1353.683594 431.4375 L 1368.640625 416.480469 L 1383.59375 431.4375 C 1383.972656 431.8125 1384.382812 432.148438 1384.824219 432.445312 C 1385.269531 432.742188 1385.734375 432.992188 1386.226562 433.195312 C 1386.722656 433.398438 1387.226562 433.554688 1387.75 433.65625 C 1388.273438 433.761719 1388.800781 433.8125 1389.335938 433.8125 C 1389.867188 433.8125 1390.394531 433.761719 1390.917969 433.65625 C 1391.441406 433.554688 1391.949219 433.398438 1392.441406 433.195312 C 1392.933594 432.992188 1393.398438 432.742188 1393.84375 432.445312 C 1394.285156 432.148438 1394.695312 431.8125 1395.074219 431.4375 C 1395.449219 431.058594 1395.785156 430.648438 1396.082031 430.207031 C 1396.378906 429.761719 1396.628906 429.296875 1396.832031 428.804688 C 1397.035156 428.3125 1397.191406 427.804688 1397.292969 427.28125 C 1397.398438 426.757812 1397.449219 426.230469 1397.449219 425.699219 C 1397.449219 425.164062 1397.398438 424.636719 1397.292969 424.113281 C 1397.191406 423.589844 1397.035156 423.085938 1396.832031 422.59375 C 1396.628906 422.097656 1396.378906 421.632812 1396.082031 421.1875 C 1395.785156 420.746094 1395.449219 420.335938 1395.074219 419.957031 Z M 1380.117188 405.003906 " fill-opacity="1" fill-rule="nonzero"/><path fill="#947f57" d="M 1194.785156 405.003906 L 1209.742188 390.046875 C 1210.121094 389.667969 1210.457031 389.257812 1210.75 388.816406 C 1211.046875 388.375 1211.296875 387.90625 1211.5 387.414062 C 1211.703125 386.921875 1211.859375 386.414062 1211.960938 385.890625 C 1212.066406 385.367188 1212.117188 384.839844 1212.117188 384.308594 C 1212.117188 383.777344 1212.066406 383.25 1211.960938 382.726562 C 1211.859375 382.203125 1211.703125 381.695312 1211.5 381.203125 C 1211.296875 380.710938 1211.046875 380.242188 1210.75 379.800781 C 1210.453125 379.359375 1210.117188 378.949219 1209.742188 378.570312 C 1209.363281 378.195312 1208.953125 377.859375 1208.511719 377.5625 C 1208.070312 377.265625 1207.601562 377.015625 1207.109375 376.8125 C 1206.617188 376.609375 1206.109375 376.453125 1205.585938 376.351562 C 1205.0625 376.246094 1204.535156 376.195312 1204.003906 376.195312 C 1203.472656 376.195312 1202.945312 376.246094 1202.421875 376.351562 C 1201.898438 376.453125 1201.390625 376.609375 1200.898438 376.8125 C 1200.40625 377.015625 1199.9375 377.265625 1199.496094 377.5625 C 1199.054688 377.855469 1198.644531 378.191406 1198.265625 378.570312 L 1183.308594 393.527344 L 1168.355469 378.570312 C 1167.976562 378.191406 1167.566406 377.855469 1167.125 377.558594 C 1166.679688 377.265625 1166.214844 377.015625 1165.71875 376.808594 C 1165.226562 376.605469 1164.722656 376.453125 1164.199219 376.347656 C 1163.675781 376.242188 1163.148438 376.191406 1162.613281 376.191406 C 1162.082031 376.191406 1161.554688 376.242188 1161.03125 376.347656 C 1160.507812 376.453125 1160 376.605469 1159.507812 376.808594 C 1159.015625 377.011719 1158.550781 377.261719 1158.105469 377.558594 C 1157.664062 377.855469 1157.253906 378.191406 1156.875 378.570312 C 1156.5 378.945312 1156.164062 379.355469 1155.867188 379.796875 C 1155.570312 380.242188 1155.320312 380.710938 1155.117188 381.203125 C 1154.914062 381.695312 1154.757812 382.203125 1154.65625 382.722656 C 1154.550781 383.246094 1154.5 383.773438 1154.5 384.308594 C 1154.5 384.839844 1154.550781 385.367188 1154.65625 385.890625 C 1154.757812 386.414062 1154.914062 386.921875 1155.117188 387.414062 C 1155.320312 387.90625 1155.570312 388.375 1155.867188 388.816406 C 1156.164062 389.257812 1156.5 389.667969 1156.875 390.046875 L 1171.832031 405.003906 L 1156.875 419.957031 C 1156.503906 420.335938 1156.171875 420.746094 1155.878906 421.191406 C 1155.589844 421.632812 1155.34375 422.101562 1155.144531 422.589844 C 1154.941406 423.082031 1154.792969 423.589844 1154.691406 424.109375 C 1154.589844 424.628906 1154.542969 425.15625 1154.542969 425.683594 C 1154.546875 426.214844 1154.597656 426.738281 1154.703125 427.261719 C 1154.808594 427.78125 1154.964844 428.285156 1155.167969 428.773438 C 1155.371094 429.261719 1155.621094 429.726562 1155.914062 430.167969 C 1156.210938 430.609375 1156.546875 431.015625 1156.921875 431.390625 C 1157.296875 431.765625 1157.703125 432.101562 1158.144531 432.398438 C 1158.585938 432.691406 1159.050781 432.941406 1159.539062 433.144531 C 1160.027344 433.347656 1160.53125 433.503906 1161.050781 433.609375 C 1161.574219 433.714844 1162.097656 433.765625 1162.628906 433.769531 C 1163.15625 433.769531 1163.683594 433.722656 1164.203125 433.621094 C 1164.722656 433.519531 1165.230469 433.371094 1165.722656 433.167969 C 1166.210938 432.96875 1166.679688 432.722656 1167.121094 432.433594 C 1167.566406 432.140625 1167.976562 431.808594 1168.355469 431.4375 L 1183.308594 416.480469 L 1198.265625 431.4375 C 1198.644531 431.8125 1199.054688 432.148438 1199.496094 432.445312 C 1199.9375 432.742188 1200.40625 432.992188 1200.898438 433.195312 C 1201.390625 433.398438 1201.898438 433.554688 1202.421875 433.65625 C 1202.945312 433.761719 1203.472656 433.8125 1204.003906 433.8125 C 1204.539062 433.8125 1205.066406 433.761719 1205.589844 433.65625 C 1206.109375 433.554688 1206.617188 433.398438 1207.109375 433.195312 C 1207.601562 432.992188 1208.070312 432.742188 1208.515625 432.445312 C 1208.957031 432.148438 1209.367188 431.8125 1209.742188 431.4375 C 1210.121094 431.058594 1210.457031 430.648438 1210.753906 430.207031 C 1211.050781 429.761719 1211.300781 429.296875 1211.503906 428.804688 C 1211.707031 428.3125 1211.859375 427.804688 1211.964844 427.28125 C 1212.070312 426.757812 1212.121094 426.230469 1212.121094 425.699219 C 1212.121094 425.164062 1212.070312 424.636719 1211.964844 424.113281 C 1211.859375 423.589844 1211.707031 423.085938 1211.503906 422.59375 C 1211.296875 422.097656 1211.046875 421.632812 1210.753906 421.1875 C 1210.457031 420.746094 1210.121094 420.335938 1209.742188 419.957031 Z M 1194.785156 405.003906 " fill-opacity="1" fill-rule="nonzero"/><path fill="#947f57" d="M 1009.457031 405.003906 L 1024.40625 390.046875 C 1024.785156 389.667969 1025.121094 389.257812 1025.417969 388.816406 C 1025.714844 388.375 1025.964844 387.90625 1026.167969 387.414062 C 1026.371094 386.921875 1026.523438 386.414062 1026.628906 385.890625 C 1026.734375 385.367188 1026.785156 384.839844 1026.785156 384.308594 C 1026.785156 383.773438 1026.734375 383.246094 1026.628906 382.726562 C 1026.523438 382.203125 1026.371094 381.695312 1026.167969 381.203125 C 1025.964844 380.710938 1025.714844 380.242188 1025.417969 379.800781 C 1025.121094 379.355469 1024.785156 378.945312 1024.40625 378.570312 C 1024.03125 378.191406 1023.621094 377.855469 1023.179688 377.558594 C 1022.734375 377.265625 1022.265625 377.015625 1021.773438 376.808594 C 1021.28125 376.605469 1020.777344 376.453125 1020.253906 376.347656 C 1019.730469 376.246094 1019.203125 376.191406 1018.667969 376.191406 C 1018.136719 376.191406 1017.609375 376.246094 1017.085938 376.347656 C 1016.5625 376.453125 1016.054688 376.605469 1015.5625 376.808594 C 1015.070312 377.015625 1014.605469 377.265625 1014.160156 377.558594 C 1013.71875 377.855469 1013.308594 378.191406 1012.929688 378.570312 L 997.972656 393.527344 L 983.023438 378.570312 C 982.648438 378.191406 982.238281 377.855469 981.792969 377.5625 C 981.351562 377.265625 980.882812 377.015625 980.390625 376.8125 C 979.898438 376.609375 979.390625 376.457031 978.871094 376.351562 C 978.347656 376.25 977.820312 376.199219 977.289062 376.199219 C 976.753906 376.199219 976.226562 376.25 975.707031 376.355469 C 975.183594 376.457031 974.675781 376.613281 974.183594 376.816406 C 973.691406 377.019531 973.222656 377.269531 972.78125 377.566406 C 972.339844 377.863281 971.929688 378.199219 971.550781 378.574219 C 971.175781 378.953125 970.839844 379.359375 970.542969 379.804688 C 970.246094 380.246094 969.996094 380.714844 969.792969 381.207031 C 969.589844 381.699219 969.4375 382.203125 969.332031 382.726562 C 969.226562 383.25 969.175781 383.777344 969.175781 384.308594 C 969.175781 384.839844 969.226562 385.371094 969.332031 385.890625 C 969.433594 386.414062 969.585938 386.921875 969.789062 387.414062 C 969.992188 387.90625 970.242188 388.375 970.539062 388.816406 C 970.835938 389.257812 971.171875 389.667969 971.546875 390.046875 L 986.503906 405.003906 L 971.546875 419.957031 C 971.175781 420.335938 970.84375 420.746094 970.550781 421.191406 C 970.257812 421.632812 970.011719 422.101562 969.8125 422.589844 C 969.613281 423.082031 969.464844 423.589844 969.363281 424.109375 C 969.261719 424.628906 969.210938 425.15625 969.214844 425.683594 C 969.214844 426.214844 969.269531 426.738281 969.375 427.261719 C 969.480469 427.78125 969.632812 428.285156 969.835938 428.773438 C 970.042969 429.261719 970.292969 429.726562 970.585938 430.167969 C 970.882812 430.609375 971.214844 431.015625 971.589844 431.390625 C 971.964844 431.765625 972.375 432.101562 972.8125 432.398438 C 973.253906 432.691406 973.71875 432.941406 974.210938 433.144531 C 974.699219 433.347656 975.203125 433.503906 975.722656 433.609375 C 976.242188 433.714844 976.769531 433.765625 977.296875 433.769531 C 977.828125 433.769531 978.355469 433.722656 978.875 433.621094 C 979.394531 433.519531 979.902344 433.371094 980.390625 433.167969 C 980.882812 432.96875 981.351562 432.722656 981.792969 432.433594 C 982.234375 432.140625 982.644531 431.808594 983.023438 431.4375 L 997.980469 416.480469 L 1012.9375 431.4375 C 1013.3125 431.8125 1013.722656 432.148438 1014.167969 432.445312 C 1014.609375 432.742188 1015.078125 432.992188 1015.570312 433.195312 C 1016.0625 433.398438 1016.570312 433.550781 1017.09375 433.65625 C 1017.613281 433.757812 1018.140625 433.8125 1018.675781 433.8125 C 1019.207031 433.8125 1019.734375 433.757812 1020.257812 433.65625 C 1020.78125 433.550781 1021.289062 433.398438 1021.78125 433.191406 C 1022.273438 432.988281 1022.738281 432.738281 1023.183594 432.441406 C 1023.625 432.148438 1024.035156 431.808594 1024.410156 431.433594 C 1024.789062 431.058594 1025.125 430.648438 1025.421875 430.203125 C 1025.714844 429.761719 1025.964844 429.292969 1026.171875 428.800781 C 1026.375 428.308594 1026.527344 427.800781 1026.632812 427.28125 C 1026.734375 426.757812 1026.789062 426.230469 1026.789062 425.695312 C 1026.789062 425.164062 1026.738281 424.636719 1026.632812 424.113281 C 1026.527344 423.589844 1026.375 423.085938 1026.171875 422.589844 C 1025.96875 422.097656 1025.71875 421.632812 1025.421875 421.1875 C 1025.125 420.746094 1024.789062 420.335938 1024.414062 419.957031 Z M 1009.457031 405.003906 " fill-opacity="1" fill-rule="nonzero"/><path fill="#947f57" d="M 824.128906 405.003906 L 839.085938 390.046875 C 839.460938 389.667969 839.796875 389.257812 840.09375 388.816406 C 840.390625 388.375 840.640625 387.90625 840.84375 387.414062 C 841.046875 386.921875 841.203125 386.414062 841.304688 385.890625 C 841.410156 385.367188 841.460938 384.839844 841.460938 384.308594 C 841.460938 383.773438 841.410156 383.246094 841.304688 382.726562 C 841.203125 382.203125 841.046875 381.695312 840.84375 381.203125 C 840.640625 380.710938 840.390625 380.242188 840.09375 379.800781 C 839.796875 379.355469 839.460938 378.945312 839.085938 378.570312 C 838.707031 378.191406 838.296875 377.855469 837.855469 377.558594 C 837.410156 377.265625 836.945312 377.015625 836.453125 376.808594 C 835.960938 376.605469 835.453125 376.453125 834.929688 376.347656 C 834.40625 376.246094 833.878906 376.191406 833.347656 376.191406 C 832.8125 376.191406 832.285156 376.246094 831.761719 376.347656 C 831.238281 376.453125 830.734375 376.605469 830.242188 376.808594 C 829.75 377.015625 829.28125 377.265625 828.835938 377.558594 C 828.394531 377.855469 827.984375 378.191406 827.609375 378.570312 L 812.648438 393.527344 L 797.695312 378.570312 C 797.316406 378.191406 796.90625 377.855469 796.464844 377.5625 C 796.023438 377.265625 795.554688 377.015625 795.0625 376.8125 C 794.570312 376.609375 794.0625 376.457031 793.539062 376.351562 C 793.019531 376.25 792.492188 376.199219 791.957031 376.199219 C 791.425781 376.199219 790.898438 376.25 790.375 376.355469 C 789.855469 376.457031 789.347656 376.613281 788.855469 376.816406 C 788.363281 377.019531 787.894531 377.269531 787.453125 377.566406 C 787.007812 377.863281 786.601562 378.199219 786.222656 378.574219 C 785.847656 378.953125 785.511719 379.359375 785.214844 379.804688 C 784.917969 380.246094 784.667969 380.714844 784.464844 381.207031 C 784.261719 381.699219 784.105469 382.203125 784.003906 382.726562 C 783.898438 383.25 783.847656 383.777344 783.847656 384.308594 C 783.84375 384.839844 783.898438 385.371094 784 385.890625 C 784.105469 386.414062 784.257812 386.921875 784.460938 387.414062 C 784.664062 387.90625 784.914062 388.375 785.210938 388.816406 C 785.503906 389.257812 785.839844 389.667969 786.21875 390.046875 L 801.171875 405.003906 L 786.21875 419.957031 C 785.84375 420.335938 785.511719 420.746094 785.222656 421.191406 C 784.929688 421.632812 784.683594 422.101562 784.484375 422.589844 C 784.28125 423.082031 784.132812 423.589844 784.03125 424.109375 C 783.929688 424.628906 783.878906 425.15625 783.882812 425.683594 C 783.882812 426.214844 783.9375 426.742188 784.042969 427.261719 C 784.148438 427.78125 784.300781 428.285156 784.507812 428.773438 C 784.710938 429.265625 784.960938 429.730469 785.253906 430.171875 C 785.550781 430.609375 785.886719 431.019531 786.261719 431.394531 C 786.636719 431.769531 787.042969 432.105469 787.484375 432.398438 C 787.925781 432.695312 788.390625 432.945312 788.878906 433.148438 C 789.367188 433.351562 789.875 433.507812 790.394531 433.609375 C 790.914062 433.714844 791.4375 433.769531 791.96875 433.769531 C 792.5 433.773438 793.023438 433.722656 793.546875 433.621094 C 794.066406 433.523438 794.570312 433.371094 795.0625 433.171875 C 795.554688 432.972656 796.019531 432.726562 796.464844 432.433594 C 796.90625 432.140625 797.316406 431.808594 797.695312 431.4375 L 812.648438 416.480469 L 827.609375 431.4375 C 827.984375 431.8125 828.394531 432.148438 828.835938 432.445312 C 829.28125 432.738281 829.75 432.988281 830.242188 433.191406 C 830.734375 433.394531 831.238281 433.546875 831.761719 433.652344 C 832.285156 433.753906 832.8125 433.804688 833.34375 433.804688 C 833.875 433.804688 834.402344 433.753906 834.925781 433.648438 C 835.449219 433.546875 835.957031 433.390625 836.445312 433.1875 C 836.9375 432.984375 837.40625 432.734375 837.847656 432.4375 C 838.292969 432.140625 838.699219 431.804688 839.078125 431.429688 C 839.453125 431.050781 839.789062 430.640625 840.085938 430.199219 C 840.382812 429.757812 840.632812 429.289062 840.835938 428.796875 C 841.039062 428.304688 841.191406 427.800781 841.296875 427.277344 C 841.402344 426.753906 841.453125 426.226562 841.453125 425.695312 C 841.453125 425.164062 841.402344 424.636719 841.300781 424.113281 C 841.195312 423.589844 841.042969 423.082031 840.839844 422.589844 C 840.636719 422.097656 840.386719 421.632812 840.089844 421.1875 C 839.796875 420.746094 839.460938 420.335938 839.085938 419.957031 Z M 824.128906 405.003906 " fill-opacity="1" fill-rule="nonzero"/><path fill="#947f57" d="M 638.804688 405.003906 L 653.753906 390.046875 C 654.132812 389.667969 654.464844 389.257812 654.761719 388.816406 C 655.054688 388.375 655.304688 387.90625 655.507812 387.414062 C 655.710938 386.921875 655.863281 386.414062 655.96875 385.894531 C 656.070312 385.371094 656.121094 384.84375 656.121094 384.3125 C 656.121094 383.777344 656.070312 383.25 655.964844 382.730469 C 655.859375 382.207031 655.707031 381.699219 655.503906 381.210938 C 655.296875 380.71875 655.046875 380.25 654.753906 379.808594 C 654.457031 379.367188 654.121094 378.957031 653.746094 378.578125 C 653.367188 378.203125 652.957031 377.867188 652.515625 377.570312 C 652.074219 377.277344 651.605469 377.027344 651.117188 376.824219 C 650.625 376.617188 650.117188 376.464844 649.59375 376.359375 C 649.074219 376.257812 648.546875 376.203125 648.011719 376.203125 C 647.480469 376.203125 646.953125 376.253906 646.433594 376.355469 C 645.910156 376.460938 645.402344 376.613281 644.910156 376.816406 C 644.417969 377.019531 643.953125 377.269531 643.507812 377.5625 C 643.066406 377.859375 642.65625 378.195312 642.277344 378.570312 L 627.320312 393.527344 L 612.367188 378.570312 C 611.988281 378.191406 611.578125 377.855469 611.136719 377.5625 C 610.691406 377.265625 610.226562 377.015625 609.734375 376.8125 C 609.242188 376.609375 608.734375 376.457031 608.210938 376.351562 C 607.6875 376.25 607.160156 376.199219 606.628906 376.199219 C 606.097656 376.199219 605.570312 376.25 605.046875 376.355469 C 604.523438 376.457031 604.015625 376.613281 603.523438 376.816406 C 603.035156 377.019531 602.566406 377.269531 602.125 377.566406 C 601.679688 377.863281 601.269531 378.199219 600.894531 378.574219 C 600.515625 378.953125 600.179688 379.359375 599.886719 379.804688 C 599.589844 380.246094 599.339844 380.714844 599.136719 381.207031 C 598.929688 381.699219 598.777344 382.203125 598.671875 382.726562 C 598.570312 383.25 598.515625 383.777344 598.515625 384.308594 C 598.515625 384.839844 598.566406 385.371094 598.671875 385.890625 C 598.773438 386.414062 598.929688 386.921875 599.132812 387.414062 C 599.335938 387.90625 599.585938 388.375 599.878906 388.816406 C 600.175781 389.257812 600.511719 389.667969 600.886719 390.046875 L 615.84375 405.003906 L 600.890625 419.957031 C 600.519531 420.335938 600.1875 420.746094 599.894531 421.191406 C 599.601562 421.632812 599.355469 422.101562 599.15625 422.589844 C 598.957031 423.082031 598.808594 423.589844 598.707031 424.109375 C 598.605469 424.628906 598.554688 425.15625 598.558594 425.683594 C 598.558594 426.214844 598.613281 426.738281 598.71875 427.261719 C 598.824219 427.78125 598.976562 428.285156 599.179688 428.773438 C 599.386719 429.261719 599.636719 429.726562 599.929688 430.167969 C 600.226562 430.609375 600.558594 431.015625 600.933594 431.390625 C 601.308594 431.765625 601.71875 432.101562 602.15625 432.398438 C 602.597656 432.691406 603.0625 432.941406 603.554688 433.144531 C 604.042969 433.347656 604.546875 433.503906 605.066406 433.609375 C 605.585938 433.714844 606.113281 433.765625 606.640625 433.769531 C 607.171875 433.769531 607.699219 433.722656 608.21875 433.621094 C 608.738281 433.519531 609.246094 433.371094 609.734375 433.167969 C 610.226562 432.96875 610.695312 432.722656 611.136719 432.433594 C 611.578125 432.140625 611.988281 431.808594 612.367188 431.4375 L 627.320312 416.480469 L 642.277344 431.4375 C 642.65625 431.8125 643.066406 432.148438 643.507812 432.445312 C 643.953125 432.738281 644.417969 432.988281 644.910156 433.191406 C 645.402344 433.394531 645.910156 433.546875 646.433594 433.652344 C 646.957031 433.753906 647.484375 433.804688 648.015625 433.804688 C 648.546875 433.804688 649.074219 433.753906 649.597656 433.648438 C 650.117188 433.546875 650.625 433.390625 651.117188 433.1875 C 651.609375 432.984375 652.078125 432.734375 652.519531 432.4375 C 652.960938 432.140625 653.371094 431.804688 653.746094 431.429688 C 654.125 431.050781 654.460938 430.640625 654.757812 430.199219 C 655.050781 429.757812 655.300781 429.289062 655.507812 428.796875 C 655.710938 428.304688 655.863281 427.800781 655.96875 427.277344 C 656.074219 426.753906 656.125 426.226562 656.125 425.695312 C 656.125 425.164062 656.074219 424.636719 655.96875 424.113281 C 655.867188 423.589844 655.714844 423.082031 655.511719 422.589844 C 655.308594 422.097656 655.058594 421.632812 654.761719 421.1875 C 654.46875 420.746094 654.132812 420.335938 653.753906 419.957031 Z M 638.804688 405.003906 " fill-opacity="1" fill-rule="nonzero"/><path fill="#947f57" d="M 453.472656 405.003906 L 468.425781 390.046875 C 468.792969 389.667969 469.121094 389.257812 469.410156 388.816406 C 469.699219 388.371094 469.941406 387.90625 470.140625 387.414062 C 470.335938 386.925781 470.484375 386.421875 470.582031 385.902344 C 470.683594 385.382812 470.730469 384.859375 470.726562 384.332031 C 470.722656 383.804688 470.667969 383.28125 470.5625 382.761719 C 470.457031 382.246094 470.300781 381.742188 470.097656 381.253906 C 469.894531 380.769531 469.644531 380.304688 469.351562 379.867188 C 469.058594 379.425781 468.722656 379.019531 468.351562 378.648438 C 467.976562 378.273438 467.570312 377.941406 467.132812 377.644531 C 466.691406 377.351562 466.230469 377.101562 465.742188 376.898438 C 465.253906 376.695312 464.753906 376.539062 464.234375 376.433594 C 463.71875 376.328125 463.195312 376.273438 462.667969 376.269531 C 462.136719 376.265625 461.613281 376.3125 461.097656 376.414062 C 460.578125 376.511719 460.074219 376.660156 459.582031 376.855469 C 459.09375 377.054688 458.625 377.296875 458.183594 377.585938 C 457.742188 377.871094 457.328125 378.199219 456.953125 378.570312 L 441.992188 393.527344 L 427.035156 378.570312 C 426.660156 378.191406 426.25 377.855469 425.808594 377.554688 C 425.363281 377.257812 424.894531 377.007812 424.402344 376.804688 C 423.910156 376.597656 423.402344 376.441406 422.878906 376.339844 C 422.355469 376.234375 421.828125 376.179688 421.292969 376.179688 C 420.761719 376.179688 420.230469 376.230469 419.707031 376.335938 C 419.183594 376.4375 418.675781 376.59375 418.183594 376.796875 C 417.691406 377 417.222656 377.25 416.777344 377.546875 C 416.335938 377.84375 415.925781 378.179688 415.546875 378.558594 C 415.171875 378.933594 414.832031 379.34375 414.535156 379.789062 C 414.242188 380.234375 413.988281 380.699219 413.785156 381.195312 C 413.582031 381.6875 413.429688 382.195312 413.324219 382.71875 C 413.222656 383.242188 413.167969 383.769531 413.171875 384.304688 C 413.171875 384.835938 413.222656 385.367188 413.328125 385.890625 C 413.433594 386.414062 413.585938 386.921875 413.792969 387.414062 C 413.996094 387.90625 414.25 388.375 414.546875 388.816406 C 414.84375 389.261719 415.179688 389.667969 415.558594 390.046875 L 430.515625 405.003906 L 415.558594 419.957031 C 415.1875 420.335938 414.855469 420.746094 414.5625 421.191406 C 414.273438 421.632812 414.027344 422.101562 413.824219 422.589844 C 413.625 423.082031 413.476562 423.589844 413.375 424.109375 C 413.273438 424.628906 413.222656 425.15625 413.226562 425.683594 C 413.226562 426.214844 413.28125 426.738281 413.386719 427.261719 C 413.492188 427.78125 413.644531 428.285156 413.851562 428.773438 C 414.054688 429.261719 414.304688 429.726562 414.597656 430.167969 C 414.894531 430.609375 415.226562 431.015625 415.601562 431.390625 C 415.976562 431.765625 416.386719 432.101562 416.828125 432.398438 C 417.265625 432.691406 417.730469 432.941406 418.222656 433.144531 C 418.710938 433.347656 419.214844 433.503906 419.734375 433.609375 C 420.253906 433.714844 420.78125 433.765625 421.3125 433.769531 C 421.839844 433.769531 422.367188 433.722656 422.886719 433.621094 C 423.40625 433.519531 423.914062 433.371094 424.40625 433.167969 C 424.894531 432.96875 425.363281 432.722656 425.804688 432.433594 C 426.25 432.140625 426.660156 431.808594 427.035156 431.4375 L 441.992188 416.480469 L 456.953125 431.4375 C 457.328125 431.8125 457.738281 432.148438 458.179688 432.445312 C 458.625 432.742188 459.09375 432.992188 459.585938 433.195312 C 460.078125 433.398438 460.585938 433.554688 461.105469 433.65625 C 461.628906 433.761719 462.15625 433.8125 462.691406 433.8125 C 463.222656 433.8125 463.75 433.761719 464.273438 433.65625 C 464.796875 433.554688 465.304688 433.398438 465.796875 433.195312 C 466.289062 432.992188 466.757812 432.742188 467.199219 432.445312 C 467.640625 432.148438 468.050781 431.8125 468.429688 431.4375 C 468.804688 431.058594 469.140625 430.648438 469.4375 430.207031 C 469.734375 429.761719 469.984375 429.296875 470.1875 428.804688 C 470.390625 428.3125 470.546875 427.804688 470.648438 427.28125 C 470.753906 426.757812 470.804688 426.230469 470.804688 425.699219 C 470.804688 425.164062 470.753906 424.636719 470.648438 424.113281 C 470.546875 423.589844 470.390625 423.085938 470.1875 422.59375 C 469.984375 422.097656 469.734375 421.632812 469.4375 421.1875 C 469.140625 420.746094 468.804688 420.335938 468.429688 419.957031 Z M 453.472656 405.003906 " fill-opacity="1" fill-rule="nonzero"/><path fill="#947f57" d="M 268.140625 405.003906 L 283.097656 390.046875 C 283.472656 389.667969 283.808594 389.257812 284.105469 388.816406 C 284.402344 388.375 284.652344 387.90625 284.855469 387.414062 C 285.058594 386.921875 285.214844 386.414062 285.316406 385.890625 C 285.421875 385.367188 285.472656 384.839844 285.472656 384.308594 C 285.472656 383.773438 285.421875 383.246094 285.316406 382.726562 C 285.214844 382.203125 285.058594 381.695312 284.855469 381.203125 C 284.652344 380.710938 284.402344 380.242188 284.105469 379.800781 C 283.808594 379.355469 283.472656 378.945312 283.097656 378.570312 C 282.71875 378.191406 282.308594 377.855469 281.867188 377.558594 C 281.425781 377.265625 280.957031 377.015625 280.464844 376.808594 C 279.972656 376.605469 279.464844 376.453125 278.941406 376.347656 C 278.417969 376.246094 277.890625 376.191406 277.359375 376.191406 C 276.824219 376.191406 276.296875 376.246094 275.773438 376.347656 C 275.253906 376.453125 274.746094 376.605469 274.253906 376.808594 C 273.761719 377.015625 273.292969 377.265625 272.851562 377.558594 C 272.40625 377.855469 271.996094 378.191406 271.621094 378.570312 L 256.660156 393.527344 L 241.707031 378.570312 C 241.332031 378.191406 240.921875 377.855469 240.476562 377.554688 C 240.035156 377.257812 239.566406 377.007812 239.074219 376.804688 C 238.582031 376.597656 238.074219 376.441406 237.550781 376.339844 C 237.027344 376.234375 236.5 376.179688 235.964844 376.179688 C 235.429688 376.179688 234.902344 376.230469 234.378906 376.335938 C 233.855469 376.4375 233.347656 376.59375 232.855469 376.796875 C 232.363281 377 231.894531 377.25 231.449219 377.546875 C 231.007812 377.84375 230.59375 378.179688 230.21875 378.558594 C 229.839844 378.933594 229.503906 379.34375 229.207031 379.789062 C 228.910156 380.234375 228.660156 380.699219 228.457031 381.195312 C 228.253906 381.6875 228.097656 382.195312 227.996094 382.71875 C 227.890625 383.242188 227.839844 383.769531 227.839844 384.304688 C 227.839844 384.835938 227.894531 385.367188 228 385.890625 C 228.101562 386.414062 228.257812 386.921875 228.464844 387.414062 C 228.667969 387.90625 228.917969 388.375 229.214844 388.816406 C 229.511719 389.261719 229.851562 389.667969 230.230469 390.046875 L 245.1875 405.003906 L 230.230469 419.957031 C 229.855469 420.335938 229.523438 420.746094 229.234375 421.191406 C 228.941406 421.632812 228.695312 422.101562 228.496094 422.589844 C 228.296875 423.082031 228.144531 423.589844 228.046875 424.109375 C 227.945312 424.628906 227.894531 425.15625 227.898438 425.683594 C 227.898438 426.214844 227.953125 426.738281 228.058594 427.261719 C 228.164062 427.78125 228.316406 428.285156 228.519531 428.773438 C 228.726562 429.261719 228.972656 429.726562 229.269531 430.167969 C 229.5625 430.609375 229.898438 431.015625 230.273438 431.390625 C 230.648438 431.765625 231.058594 432.101562 231.496094 432.398438 C 231.9375 432.691406 232.402344 432.941406 232.890625 433.144531 C 233.382812 433.347656 233.886719 433.503906 234.40625 433.609375 C 234.925781 433.714844 235.449219 433.765625 235.980469 433.769531 C 236.511719 433.769531 237.035156 433.722656 237.558594 433.621094 C 238.078125 433.519531 238.585938 433.371094 239.074219 433.167969 C 239.566406 432.96875 240.03125 432.722656 240.476562 432.433594 C 240.917969 432.140625 241.328125 431.808594 241.707031 431.4375 L 256.660156 416.480469 L 271.613281 431.4375 C 271.992188 431.8125 272.402344 432.148438 272.84375 432.445312 C 273.289062 432.738281 273.757812 432.988281 274.25 433.191406 C 274.742188 433.394531 275.246094 433.546875 275.769531 433.652344 C 276.292969 433.753906 276.820312 433.804688 277.351562 433.804688 C 277.882812 433.804688 278.410156 433.753906 278.933594 433.648438 C 279.457031 433.546875 279.960938 433.390625 280.453125 433.1875 C 280.945312 432.984375 281.414062 432.734375 281.855469 432.4375 C 282.296875 432.140625 282.707031 431.804688 283.085938 431.429688 C 283.460938 431.050781 283.796875 430.640625 284.09375 430.199219 C 284.390625 429.757812 284.640625 429.289062 284.84375 428.796875 C 285.046875 428.304688 285.199219 427.800781 285.304688 427.277344 C 285.410156 426.753906 285.460938 426.226562 285.460938 425.695312 C 285.460938 425.164062 285.410156 424.636719 285.308594 424.113281 C 285.203125 423.589844 285.050781 423.082031 284.847656 422.589844 C 284.644531 422.097656 284.394531 421.632812 284.097656 421.1875 C 283.804688 420.746094 283.46875 420.335938 283.09375 419.957031 Z M 268.140625 405.003906 " fill-opacity="1" fill-rule="nonzero"/><path fill="#947f57" d="M 82.8125 405.003906 L 97.765625 390.046875 C 98.144531 389.667969 98.480469 389.257812 98.777344 388.816406 C 99.074219 388.375 99.324219 387.90625 99.527344 387.414062 C 99.730469 386.921875 99.882812 386.414062 99.988281 385.890625 C 100.09375 385.367188 100.144531 384.839844 100.144531 384.308594 C 100.144531 383.773438 100.09375 383.246094 99.988281 382.726562 C 99.882812 382.203125 99.730469 381.695312 99.527344 381.203125 C 99.324219 380.710938 99.074219 380.242188 98.777344 379.800781 C 98.480469 379.355469 98.144531 378.945312 97.765625 378.570312 C 97.390625 378.191406 96.980469 377.855469 96.539062 377.558594 C 96.09375 377.265625 95.628906 377.015625 95.132812 376.808594 C 94.640625 376.605469 94.136719 376.453125 93.613281 376.347656 C 93.089844 376.246094 92.5625 376.191406 92.027344 376.191406 C 91.496094 376.191406 90.96875 376.246094 90.445312 376.347656 C 89.921875 376.453125 89.414062 376.605469 88.921875 376.808594 C 88.429688 377.015625 87.964844 377.265625 87.519531 377.558594 C 87.078125 377.855469 86.667969 378.191406 86.289062 378.570312 L 71.335938 393.527344 L 56.378906 378.570312 C 56 378.191406 55.589844 377.855469 55.148438 377.558594 C 54.707031 377.265625 54.238281 377.015625 53.746094 376.808594 C 53.253906 376.605469 52.746094 376.453125 52.222656 376.347656 C 51.699219 376.242188 51.171875 376.191406 50.640625 376.191406 C 50.105469 376.191406 49.578125 376.242188 49.054688 376.347656 C 48.535156 376.453125 48.027344 376.605469 47.535156 376.808594 C 47.042969 377.011719 46.574219 377.261719 46.128906 377.558594 C 45.6875 377.855469 45.277344 378.191406 44.898438 378.570312 C 44.523438 378.945312 44.1875 379.355469 43.890625 379.796875 C 43.59375 380.242188 43.34375 380.710938 43.140625 381.203125 C 42.9375 381.695312 42.78125 382.203125 42.679688 382.722656 C 42.574219 383.246094 42.523438 383.773438 42.523438 384.308594 C 42.523438 384.839844 42.574219 385.367188 42.679688 385.890625 C 42.78125 386.414062 42.9375 386.921875 43.140625 387.414062 C 43.34375 387.90625 43.59375 388.375 43.890625 388.816406 C 44.1875 389.257812 44.523438 389.667969 44.898438 390.046875 L 59.855469 405.003906 L 44.898438 419.957031 C 44.527344 420.335938 44.195312 420.746094 43.90625 421.191406 C 43.613281 421.632812 43.367188 422.101562 43.167969 422.589844 C 42.96875 423.082031 42.816406 423.589844 42.714844 424.109375 C 42.613281 424.628906 42.566406 425.15625 42.566406 425.683594 C 42.570312 426.214844 42.625 426.738281 42.726562 427.261719 C 42.832031 427.78125 42.988281 428.285156 43.191406 428.773438 C 43.394531 429.261719 43.644531 429.726562 43.941406 430.167969 C 44.234375 430.609375 44.570312 431.015625 44.945312 431.390625 C 45.320312 431.765625 45.726562 432.101562 46.167969 432.398438 C 46.609375 432.691406 47.074219 432.941406 47.5625 433.144531 C 48.054688 433.347656 48.558594 433.503906 49.078125 433.609375 C 49.597656 433.714844 50.121094 433.765625 50.652344 433.769531 C 51.183594 433.773438 51.707031 433.722656 52.226562 433.621094 C 52.75 433.519531 53.253906 433.371094 53.746094 433.167969 C 54.238281 432.96875 54.703125 432.722656 55.148438 432.433594 C 55.589844 432.140625 56 431.808594 56.378906 431.4375 L 71.335938 416.480469 L 86.289062 431.4375 C 86.667969 431.8125 87.078125 432.148438 87.519531 432.445312 C 87.964844 432.738281 88.429688 432.988281 88.921875 433.191406 C 89.414062 433.394531 89.921875 433.546875 90.445312 433.652344 C 90.96875 433.753906 91.496094 433.804688 92.027344 433.804688 C 92.558594 433.804688 93.085938 433.753906 93.609375 433.648438 C 94.128906 433.546875 94.636719 433.390625 95.128906 433.1875 C 95.621094 432.984375 96.089844 432.734375 96.53125 432.4375 C 96.972656 432.140625 97.382812 431.804688 97.761719 431.429688 C 98.136719 431.050781 98.472656 430.640625 98.769531 430.199219 C 99.0625 429.757812 99.3125 429.289062 99.519531 428.796875 C 99.722656 428.304688 99.875 427.800781 99.980469 427.277344 C 100.085938 426.753906 100.136719 426.226562 100.136719 425.695312 C 100.136719 425.164062 100.085938 424.636719 99.980469 424.113281 C 99.878906 423.589844 99.726562 423.082031 99.523438 422.589844 C 99.320312 422.097656 99.070312 421.632812 98.773438 421.1875 C 98.480469 420.746094 98.144531 420.335938 97.765625 419.957031 Z M 82.8125 405.003906 " fill-opacity="1" fill-rule="nonzero"/></svg>